<svg width="93" height="93" viewBox="0 0 93 93" fill="none" xmlns="http://www.w3.org/2000/svg">
<g filter="url(#filter0_d_34_27)">
<rect x="4.75" y="3" width="84" height="85" rx="42" fill="white" shape-rendering="crispEdges"/>
<g clip-path="url(#clip0_34_27)">
<path d="M30.75 31.5C30.75 30.9696 30.9607 30.4609 31.3358 30.0858C31.7109 29.7107 32.2196 29.5 32.75 29.5H40.75C41.2804 29.5 41.7891 29.7107 42.1642 30.0858C42.5393 30.4609 42.75 30.9696 42.75 31.5V39.5C42.75 40.0304 42.5393 40.5391 42.1642 40.9142C41.7891 41.2893 41.2804 41.5 40.75 41.5H32.75C32.2196 41.5 31.7109 41.2893 31.3358 40.9142C30.9607 40.5391 30.75 40.0304 30.75 39.5V31.5Z" fill="#00BDE3" stroke="#00BDE3" stroke-width="2" stroke-linecap="round" stroke-linejoin="round"/>
<path d="M30.75 51.5C30.75 50.9696 30.9607 50.4609 31.3358 50.0858C31.7109 49.7107 32.2196 49.5 32.75 49.5H40.75C41.2804 49.5 41.7891 49.7107 42.1642 50.0858C42.5393 50.4609 42.75 50.9696 42.75 51.5V59.5C42.75 60.0304 42.5393 60.5391 42.1642 60.9142C41.7891 61.2893 41.2804 61.5 40.75 61.5H32.75C32.2196 61.5 31.7109 61.2893 31.3358 60.9142C30.9607 60.5391 30.75 60.0304 30.75 59.5V51.5Z" fill="#00BDE3" stroke="#00BDE3" stroke-width="2" stroke-linecap="round" stroke-linejoin="round"/>
<path d="M50.75 51.5C50.75 50.9696 50.9607 50.4609 51.3358 50.0858C51.7109 49.7107 52.2196 49.5 52.75 49.5H60.75C61.2804 49.5 61.7891 49.7107 62.1642 50.0858C62.5393 50.4609 62.75 50.9696 62.75 51.5V59.5C62.75 60.0304 62.5393 60.5391 62.1642 60.9142C61.7891 61.2893 61.2804 61.5 60.75 61.5H52.75C52.2196 61.5 51.7109 61.2893 51.3358 60.9142C50.9607 60.5391 50.75 60.0304 50.75 59.5V51.5Z" fill="#00BDE3" stroke="#00BDE3" stroke-width="2" stroke-linecap="round" stroke-linejoin="round"/>
<path d="M50.75 35.5H62.75" stroke="#00BDE3" stroke-width="2" stroke-linecap="round" stroke-linejoin="round"/>
<path d="M56.75 29.5V41.5" stroke="#00BDE3" stroke-width="2" stroke-linecap="round" stroke-linejoin="round"/>
</g>
</g>
<defs>
<filter id="filter0_d_34_27" x="0.75" y="0" width="92" height="93" filterUnits="userSpaceOnUse" color-interpolation-filters="sRGB">
<feFlood flood-opacity="0" result="BackgroundImageFix"/>
<feColorMatrix in="SourceAlpha" type="matrix" values="0 0 0 0 0 0 0 0 0 0 0 0 0 0 0 0 0 0 127 0" result="hardAlpha"/>
<feOffset dy="1"/>
<feGaussianBlur stdDeviation="2"/>
<feComposite in2="hardAlpha" operator="out"/>
<feColorMatrix type="matrix" values="0 0 0 0 0 0 0 0 0 0 0 0 0 0 0 0 0 0 0.06 0"/>
<feBlend mode="normal" in2="BackgroundImageFix" result="effect1_dropShadow_34_27"/>
<feBlend mode="normal" in="SourceGraphic" in2="effect1_dropShadow_34_27" result="shape"/>
</filter>
<clipPath id="clip0_34_27">
<rect width="48" height="48" fill="white" transform="translate(22.75 21.5)"/>
</clipPath>
</defs>
</svg>
