<svg width="72" height="73" viewBox="0 0 72 73" fill="none" xmlns="http://www.w3.org/2000/svg">
<g filter="url(#filter0_d_34_152)">
<rect x="4" y="3.5" width="64" height="64" rx="32" fill="white" shape-rendering="crispEdges"/>
<path d="M42.875 21.75H29.125C25.328 21.75 22.25 24.828 22.25 28.625V42.375C22.25 46.172 25.328 49.25 29.125 49.25H42.875C46.672 49.25 49.75 46.172 49.75 42.375V28.625C49.75 24.828 46.672 21.75 42.875 21.75Z" stroke="#525252" stroke-width="2" stroke-linecap="round" stroke-linejoin="round"/>
<path d="M41.5001 34.6337C41.6698 35.778 41.4743 36.9467 40.9415 37.9736C40.4087 39.0004 39.5657 39.8331 38.5323 40.3532C37.499 40.8733 36.328 41.0544 35.1858 40.8706C34.0436 40.6868 32.9885 40.1475 32.1705 39.3295C31.3525 38.5115 30.8132 37.4564 30.6294 36.3142C30.4456 35.1721 30.6267 34.001 31.1468 32.9677C31.6669 31.9344 32.4996 31.0913 33.5264 30.5585C34.5533 30.0257 35.722 29.8302 36.8663 29.9999C38.0336 30.173 39.1143 30.7169 39.9487 31.5513C40.7831 32.3858 41.327 33.4664 41.5001 34.6337Z" stroke="#525252" stroke-width="2" stroke-linecap="round" stroke-linejoin="round"/>
<path d="M43.5625 27.9375H43.5763" stroke="#525252" stroke-width="2" stroke-linecap="round" stroke-linejoin="round"/>
</g>
<defs>
<filter id="filter0_d_34_152" x="0" y="0.5" width="72" height="72" filterUnits="userSpaceOnUse" color-interpolation-filters="sRGB">
<feFlood flood-opacity="0" result="BackgroundImageFix"/>
<feColorMatrix in="SourceAlpha" type="matrix" values="0 0 0 0 0 0 0 0 0 0 0 0 0 0 0 0 0 0 127 0" result="hardAlpha"/>
<feOffset dy="1"/>
<feGaussianBlur stdDeviation="2"/>
<feComposite in2="hardAlpha" operator="out"/>
<feColorMatrix type="matrix" values="0 0 0 0 0 0 0 0 0 0 0 0 0 0 0 0 0 0 0.06 0"/>
<feBlend mode="normal" in2="BackgroundImageFix" result="effect1_dropShadow_34_152"/>
<feBlend mode="normal" in="SourceGraphic" in2="effect1_dropShadow_34_152" result="shape"/>
</filter>
</defs>
</svg>
