<svg width="72" height="73" viewBox="0 0 72 73" fill="none" xmlns="http://www.w3.org/2000/svg">
<g filter="url(#filter0_d_34_156)">
<rect x="4" y="3.5" width="64" height="64" rx="32" fill="white" shape-rendering="crispEdges"/>
<g clip-path="url(#clip0_34_156)">
<path d="M22.125 27.7916C22.125 26.9738 22.4499 26.1896 23.0281 25.6113C23.6063 25.0331 24.3906 24.7083 25.2083 24.7083H46.7917C47.6094 24.7083 48.3937 25.0331 48.9719 25.6113C49.5501 26.1896 49.875 26.9738 49.875 27.7916V43.2083C49.875 44.026 49.5501 44.8103 48.9719 45.3885C48.3937 45.9667 47.6094 46.2916 46.7917 46.2916H25.2083C24.3906 46.2916 23.6063 45.9667 23.0281 45.3885C22.4499 44.8103 22.125 44.026 22.125 43.2083V27.7916Z" stroke="#525252" stroke-width="2" stroke-linecap="round" stroke-linejoin="round"/>
<path d="M22.125 27.7917L36 37.0417L49.875 27.7917" stroke="#525252" stroke-width="2" stroke-linecap="round" stroke-linejoin="round"/>
</g>
</g>
<defs>
<filter id="filter0_d_34_156" x="0" y="0.5" width="72" height="72" filterUnits="userSpaceOnUse" color-interpolation-filters="sRGB">
<feFlood flood-opacity="0" result="BackgroundImageFix"/>
<feColorMatrix in="SourceAlpha" type="matrix" values="0 0 0 0 0 0 0 0 0 0 0 0 0 0 0 0 0 0 127 0" result="hardAlpha"/>
<feOffset dy="1"/>
<feGaussianBlur stdDeviation="2"/>
<feComposite in2="hardAlpha" operator="out"/>
<feColorMatrix type="matrix" values="0 0 0 0 0 0 0 0 0 0 0 0 0 0 0 0 0 0 0.06 0"/>
<feBlend mode="normal" in2="BackgroundImageFix" result="effect1_dropShadow_34_156"/>
<feBlend mode="normal" in="SourceGraphic" in2="effect1_dropShadow_34_156" result="shape"/>
</filter>
<clipPath id="clip0_34_156">
<rect width="37" height="37" fill="white" transform="translate(17.5 17)"/>
</clipPath>
</defs>
</svg>
