<svg width="93" height="93" viewBox="0 0 93 93" fill="none" xmlns="http://www.w3.org/2000/svg">
<g filter="url(#filter0_d_34_31)">
<rect x="4.25" y="3" width="84" height="85" rx="42" fill="white" shape-rendering="crispEdges"/>
<path d="M52.125 59.459C53.7954 59.944 55.5262 60.1893 57.2656 60.1875C60.0629 60.1915 62.8239 59.5537 65.3359 58.3232C65.4102 56.5679 64.9102 54.8363 63.9118 53.3908C62.9134 51.9452 61.4709 50.8646 59.8031 50.3126C58.1352 49.7606 56.3329 49.7674 54.6692 50.332C53.0056 50.8965 51.5713 51.988 50.5838 53.441M52.125 59.459V59.4531C52.125 57.2735 51.5649 55.2231 50.5838 53.441M52.125 59.459V59.6666C48.3562 61.9365 44.0383 63.1324 39.6387 63.125C35.0738 63.125 30.8027 61.8619 27.1563 59.6666L27.1543 59.4531C27.1528 56.681 28.074 53.9873 29.7726 51.7966C31.4712 49.6058 33.8506 48.0428 36.5357 47.3538C39.2208 46.6648 42.0588 46.889 44.6024 47.9912C47.146 49.0933 49.2503 51.0107 50.5838 53.441M46.25 34.4844C46.25 36.2373 45.5537 37.9184 44.3142 39.1579C43.0747 40.3974 41.3935 41.0938 39.6406 41.0938C37.8877 41.0938 36.2066 40.3974 34.9671 39.1579C33.7276 37.9184 33.0313 36.2373 33.0313 34.4844C33.0313 32.7315 33.7276 31.0503 34.9671 29.8108C36.2066 28.5713 37.8877 27.875 39.6406 27.875C41.3935 27.875 43.0747 28.5713 44.3142 29.8108C45.5537 31.0503 46.25 32.7315 46.25 34.4844ZM62.4063 38.8906C62.4063 40.254 61.8647 41.5615 60.9006 42.5256C59.9366 43.4897 58.629 44.0312 57.2656 44.0312C55.9023 44.0312 54.5947 43.4897 53.6307 42.5256C52.6666 41.5615 52.125 40.254 52.125 38.8906C52.125 37.5272 52.6666 36.2197 53.6307 35.2557C54.5947 34.2916 55.9023 33.75 57.2656 33.75C58.629 33.75 59.9366 34.2916 60.9006 35.2557C61.8647 36.2197 62.4063 37.5272 62.4063 38.8906Z" fill="#00BDE3"/>
<path d="M52.125 59.459C53.7954 59.944 55.5262 60.1893 57.2656 60.1875C60.0629 60.1915 62.8239 59.5537 65.3359 58.3232C65.4102 56.5679 64.9102 54.8363 63.9118 53.3908C62.9134 51.9452 61.4709 50.8646 59.8031 50.3126C58.1352 49.7606 56.3329 49.7674 54.6692 50.332C53.0056 50.8965 51.5713 51.988 50.5838 53.441M52.125 59.459V59.4531C52.125 57.2735 51.5649 55.2231 50.5838 53.441M52.125 59.459V59.6666C48.3562 61.9365 44.0383 63.1324 39.6387 63.125C35.0738 63.125 30.8027 61.8619 27.1563 59.6666L27.1543 59.4531C27.1528 56.681 28.074 53.9873 29.7726 51.7966C31.4712 49.6058 33.8506 48.0428 36.5357 47.3538C39.2208 46.6648 42.0588 46.889 44.6024 47.9912C47.146 49.0933 49.2503 51.0107 50.5838 53.441M46.25 34.4844C46.25 36.2373 45.5537 37.9184 44.3142 39.1579C43.0747 40.3974 41.3935 41.0938 39.6406 41.0938C37.8877 41.0938 36.2066 40.3974 34.9671 39.1579C33.7276 37.9184 33.0313 36.2373 33.0313 34.4844C33.0313 32.7315 33.7276 31.0503 34.9671 29.8108C36.2066 28.5713 37.8877 27.875 39.6406 27.875C41.3935 27.875 43.0747 28.5713 44.3142 29.8108C45.5537 31.0503 46.25 32.7315 46.25 34.4844ZM62.4063 38.8906C62.4063 40.254 61.8647 41.5615 60.9006 42.5256C59.9366 43.4897 58.629 44.0313 57.2656 44.0313C55.9023 44.0313 54.5947 43.4897 53.6307 42.5256C52.6666 41.5615 52.125 40.254 52.125 38.8906C52.125 37.5272 52.6666 36.2197 53.6307 35.2557C54.5947 34.2916 55.9023 33.75 57.2656 33.75C58.629 33.75 59.9366 34.2916 60.9006 35.2557C61.8647 36.2197 62.4063 37.5272 62.4063 38.8906Z" stroke="#00BDE3" stroke-width="1.5" stroke-linecap="round" stroke-linejoin="round"/>
</g>
<defs>
<filter id="filter0_d_34_31" x="0.25" y="0" width="92" height="93" filterUnits="userSpaceOnUse" color-interpolation-filters="sRGB">
<feFlood flood-opacity="0" result="BackgroundImageFix"/>
<feColorMatrix in="SourceAlpha" type="matrix" values="0 0 0 0 0 0 0 0 0 0 0 0 0 0 0 0 0 0 127 0" result="hardAlpha"/>
<feOffset dy="1"/>
<feGaussianBlur stdDeviation="2"/>
<feComposite in2="hardAlpha" operator="out"/>
<feColorMatrix type="matrix" values="0 0 0 0 0 0 0 0 0 0 0 0 0 0 0 0 0 0 0.06 0"/>
<feBlend mode="normal" in2="BackgroundImageFix" result="effect1_dropShadow_34_31"/>
<feBlend mode="normal" in="SourceGraphic" in2="effect1_dropShadow_34_31" result="shape"/>
</filter>
</defs>
</svg>
