<svg width="72" height="73" viewBox="0 0 72 73" fill="none" xmlns="http://www.w3.org/2000/svg">
<g filter="url(#filter0_d_34_158)">
<rect x="4" y="3.5" width="64" height="64" rx="32" fill="white" shape-rendering="crispEdges"/>
<g clip-path="url(#clip0_34_158)">
<path d="M25.2083 23.1667H31.375L34.4583 30.8751L30.6042 33.1876C32.2552 36.5354 34.9647 39.2449 38.3125 40.8959L40.625 37.0417L48.3333 40.1251V46.2917C48.3333 47.1095 48.0085 47.8938 47.4302 48.472C46.852 49.0502 46.0678 49.3751 45.25 49.3751C39.2364 49.0096 33.5644 46.4559 29.3043 42.1958C25.0442 37.9357 22.4905 32.2637 22.125 26.2501C22.125 25.4323 22.4499 24.6481 23.0281 24.0698C23.6063 23.4916 24.3906 23.1667 25.2083 23.1667Z" stroke="#525252" stroke-width="2" stroke-linecap="round" stroke-linejoin="round"/>
</g>
</g>
<defs>
<filter id="filter0_d_34_158" x="0" y="0.5" width="72" height="72" filterUnits="userSpaceOnUse" color-interpolation-filters="sRGB">
<feFlood flood-opacity="0" result="BackgroundImageFix"/>
<feColorMatrix in="SourceAlpha" type="matrix" values="0 0 0 0 0 0 0 0 0 0 0 0 0 0 0 0 0 0 127 0" result="hardAlpha"/>
<feOffset dy="1"/>
<feGaussianBlur stdDeviation="2"/>
<feComposite in2="hardAlpha" operator="out"/>
<feColorMatrix type="matrix" values="0 0 0 0 0 0 0 0 0 0 0 0 0 0 0 0 0 0 0.06 0"/>
<feBlend mode="normal" in2="BackgroundImageFix" result="effect1_dropShadow_34_158"/>
<feBlend mode="normal" in="SourceGraphic" in2="effect1_dropShadow_34_158" result="shape"/>
</filter>
<clipPath id="clip0_34_158">
<rect width="37" height="37" fill="white" transform="translate(17.5 17)"/>
</clipPath>
</defs>
</svg>
