<svg width="94" height="93" fill="none" xmlns="http://www.w3.org/2000/svg">
    <g filter="url(#a)">
        <rect x="4.75" y="3" width="85" height="85" rx="42.5" fill="#fff" shape-rendering="crispEdges"/>
        <path d="M47.25 25.083c-11.258 0-20.417 9.16-20.417 20.417 0 11.258 9.16 20.417 20.417 20.417 11.258 0 20.417-9.16 20.417-20.417 0-11.258-9.16-20.417-20.417-20.417Zm2.042 30.452v2.215h-4.084v-2.205c-4.775-.75-6.125-4.087-6.125-5.962h4.084c.022.292.324 2.042 4.083 2.042 2.818 0 4.083-1.194 4.083-2.042 0-.661 0-2.041-4.083-2.041-7.105 0-8.167-3.839-8.167-6.125 0-2.63 2.101-5.276 6.125-5.952v-2.19h4.084v2.264c3.54.837 4.9 3.783 4.9 5.878H52.15l-2.042.036c-.028-.775-.439-2.078-2.858-2.078-2.652 0-4.083 1.053-4.083 2.042 0 .763 0 2.041 4.083 2.041 7.105 0 8.167 3.839 8.167 6.125 0 2.63-2.101 5.276-6.125 5.952Z" fill="#00BDE3"/>
    </g>
    <defs>
        <filter id="a" x=".75" y="0" width="93" height="93" filterUnits="userSpaceOnUse" color-interpolation-filters="sRGB">
            <feFlood flood-opacity="0" result="BackgroundImageFix"/>
            <feColorMatrix in="SourceAlpha" values="0 0 0 0 0 0 0 0 0 0 0 0 0 0 0 0 0 0 127 0" result="hardAlpha"/>
            <feOffset dy="1"/>
            <feGaussianBlur stdDeviation="2"/>
            <feComposite in2="hardAlpha" operator="out"/>
            <feColorMatrix values="0 0 0 0 0 0 0 0 0 0 0 0 0 0 0 0 0 0 0.06 0"/>
            <feBlend in2="BackgroundImageFix" result="effect1_dropShadow_34_39"/>
            <feBlend in="SourceGraphic" in2="effect1_dropShadow_34_39" result="shape"/>
        </filter>
    </defs>
</svg>
